# xmcd CD database file
#
# Track frame offsets:
#	150
#	25104
#	51552
#	68074
#	93594
#	111235
#	138545
#	170190
#	185086
#	204729
#	230527
#	258243
#
# Disc length: 4019 seconds
#
# Revision: 0
# Processed by: cddbd v1.4PL0 Copyright (c) Steve Scherf et al.
# Submitted via: CDex 1.50beta10
#
DISCID=b80fb10c
DTITLE=Free Blues Band - Big Game
DYEAR=2003
DGENRE=Blues
TTITLE0=I DON'T CARE
TTITLE1=BIG GAME
TTITLE2=CHEAP BEER
TTITLE3=LUCKY LOVE
TTITLE4=IF I COULD
TTITLE5=I'M RED
TTITLE6=WHERE ARE YOU FROM
TTITLE7=WHAT ARE YOU LIVIN' FOR
TTITLE8=MOUNTAINS
TTITLE9=NEXT DAYS
TTITLE10=CAN'T DO IT RIGHT
TTITLE11=IBRAHIM
EXTD=YEAR: 2003
EXTT0=
EXTT1=
EXTT2=
EXTT3=
EXTT4=
EXTT5=
EXTT6=
EXTT7=
EXTT8=
EXTT9=
EXTT10=
EXTT11=
PLAYORDER=
